<?xml version="1.0" encoding="iso-8859-1"?>
<!-- Generator: Adobe Illustrator 18.0.0, SVG Export Plug-In . SVG Version: 6.00 Build 0)  -->
<!DOCTYPE svg PUBLIC "-//W3C//DTD SVG 1.1//EN" "http://www.w3.org/Graphics/SVG/1.1/DTD/svg11.dtd">
<svg version="1.1" id="Capa_1" xmlns="http://www.w3.org/2000/svg" xmlns:xlink="http://www.w3.org/1999/xlink" x="0px" y="0px"
	 viewBox="0 0 358.845 358.845" style="enable-background:new 0 0 358.845 358.845;" xml:space="preserve">
<g>
	<g>
		<path d="M179.422,358.844C80.489,358.844,0,278.354,0,179.422S80.489,0.001,179.422,0.001c98.936,0,179.423,80.49,179.423,179.422
			S278.358,358.844,179.422,358.844z M179.422,43.497c-74.953,0-135.922,60.973-135.922,135.926
			c0,74.951,60.969,135.922,135.922,135.922c74.956,0,135.923-60.971,135.923-135.922
			C315.345,104.469,254.378,43.497,179.422,43.497z"/>
	</g>
	<g>
		<path d="M274.028,179.422l-13.046-13.597h-58.02c-2.388-4.122-5.823-7.555-9.943-9.944V73.402l-14.142-10.608l-13.052,10.608
			v82.479c-8.12,4.698-13.587,13.476-13.587,23.541c0,15.017,12.17,27.181,27.183,27.181c10.062,0,18.839-5.468,23.541-13.587h58.02
			L274.028,179.422z"/>
	</g>
</g>
<g>
</g>
<g>
</g>
<g>
</g>
<g>
</g>
<g>
</g>
<g>
</g>
<g>
</g>
<g>
</g>
<g>
</g>
<g>
</g>
<g>
</g>
<g>
</g>
<g>
</g>
<g>
</g>
<g>
</g>
</svg>
